<?xml version="1.0" encoding="UTF-8"?>
<svg id="ETH" xmlns="http://www.w3.org/2000/svg" viewBox="0 0 140.71 22.86">
  <g>
    <path d="M86.5,16.63c-.81,4.02-3.91,4.22-4.53,4.22-1.75,0-2.8-1.01-2.8-2.71,0-.39.06-.91.15-1.44l1.92-9.56v-.04s-2.26,0-2.26,0l-1.96,9.8-.03.14c-.08.44-.16.86-.16,1.41,0,2.63,1.73,4.4,4.31,4.4,1.89,0,3.4-.62,4.51-1.84l-.29,1.62v.04s2.23,0,2.23,0l3.09-15.53v-.04s-2.29,0-2.29,0l-1.89,9.52Z"/>
    <path d="M101.95,6.92c-1.75,0-3.3.72-4.28,1.97l.35-1.75v-.04s-2.23,0-2.23,0l-3.09,15.53v.04s2.26,0,2.26,0l1.89-9.52c.48-2.44,2.36-4.22,4.46-4.22.9,0,1.62.36,2.18,1.09l.02.03,1.84-1.65-.02-.02c-.85-.98-1.96-1.46-3.39-1.46Z"/>
    <polygon points="64.47 9.08 64.46 9.12 72.2 9.12 61.9 20.77 61.89 20.77 61.5 22.67 72.48 22.67 72.87 20.66 64.67 20.66 75 9.01 75 9.01 75.39 7.11 64.85 7.11 64.47 9.08"/>
    <polygon points="105.65 22.64 105.64 22.67 107.91 22.67 111 7.11 108.77 7.11 105.65 22.64"/>
    <path d="M136.39,6.92c-1.87,0-3.32.57-4.44,1.75L133.71,0h-2.27l-4.55,22.68h2.27l1.89-9.53c.81-4.01,3.94-4.22,4.56-4.22,1.73,0,2.77,1.01,2.77,2.7,0,.38-.06.91-.16,1.44l-1.92,9.6h2.27l1.99-9.81c.1-.52.16-.96.16-1.55,0-2.63-1.74-4.4-4.32-4.4Z"/>
    <path d="M121.36,6.92c-4.11,0-7,2.9-7.92,7.95-.17.85-.22,1.79-.22,2.4,0,3.45,2.1,5.6,5.47,5.6,1.96,0,3.76-.75,5.18-2.18l.02-.02-1.31-1.6-.02-.03-.02.03c-1.2,1.27-2.28,1.78-3.72,1.78-1.61,0-3.33-.96-3.33-3.65,0-.84.1-1.54.25-2.32.24-1.32.79-3.16,2.01-4.45.97-1,2.11-1.5,3.41-1.5s2.2.48,3.02,1.72l.02.03,1.66-1.41.02-.02-.02-.02c-1.14-1.6-2.52-2.31-4.49-2.31Z"/>
    <polygon points="109.62 2.83 111.89 2.83 112.45 0 110.19 0 109.62 2.83"/>
    <polygon points="87.57 2.83 89.84 2.83 90.4 0 88.14 0 87.57 2.83"/>
    <polygon points="81.52 2.83 83.79 2.83 84.36 0 82.1 0 81.52 2.83"/>
  </g>
  <polygon points="51.23 8.79 46.13 8.79 47.92 0 4.55 0 0 22.68 17.29 22.68 18.42 17.01 8.21 17.01 8.83 13.89 19.04 13.89 20.07 8.79 9.86 8.79 10.48 5.67 26.66 5.67 23.24 22.68 30.33 22.68 33.74 5.67 39.69 5.67 36.28 22.68 43.36 22.68 45.11 13.89 50.22 13.89 48.47 22.68 55.55 22.68 60.11 0 53.02 0 51.23 8.79"/>
</svg>