<?xml version="1.0" encoding="UTF-8"?>
<svg id="Ebene_1" data-name="Ebene 1" xmlns="http://www.w3.org/2000/svg" viewBox="0 0 457.08 195.56">
  <defs>
    <style>
      .cls-1 {
        fill: #4590c3;
      }

      .cls-2 {
        fill: #2e6ca4;
      }

      .cls-3 {
        fill: #54bce8;
      }

      .cls-4 {
        fill: #333;
      }
    </style>
  </defs>
  <g>
    <path class="cls-4" d="M216.08,148.36c0-1.41.27-2.83.8-4.24.53-1.41,1.24-2.65,2.21-3.8s2.21-2.03,3.62-2.74,3.01-1.06,4.77-1.06c2.12,0,3.98.44,5.48,1.41,1.5.97,2.65,2.21,3.45,3.71l-2.92,1.94c-.35-.71-.71-1.33-1.24-1.77-.44-.53-.97-.88-1.5-1.15-.53-.27-1.15-.53-1.77-.62-.62-.09-1.15-.18-1.77-.18-1.24,0-2.3.27-3.27.71-.97.53-1.68,1.15-2.3,1.94-.62.8-1.15,1.77-1.41,2.74-.35,1.06-.44,2.03-.44,3.09,0,1.15.18,2.21.53,3.27.35,1.06.88,1.94,1.59,2.74.71.8,1.5,1.41,2.39,1.94.97.44,1.94.71,3.09.71.62,0,1.15-.09,1.77-.18.62-.18,1.24-.35,1.77-.71.53-.35,1.06-.71,1.59-1.24.44-.53.88-1.06,1.15-1.77l3.09,1.77c-.35.88-.88,1.68-1.59,2.3-.71.71-1.5,1.24-2.3,1.68-.88.44-1.77.8-2.74,1.06s-1.94.35-2.83.35c-1.68,0-3.18-.35-4.51-1.06-1.41-.71-2.56-1.59-3.54-2.74s-1.77-2.48-2.3-3.89c-.62-1.33-.88-2.74-.88-4.24Z"/>
    <path class="cls-4" d="M248.35,160.64c-1.41,0-2.56-.27-3.71-.71s-2.03-1.15-2.83-1.94c-.8-.8-1.41-1.77-1.77-2.83-.44-1.06-.62-2.21-.62-3.45s.18-2.3.62-3.45c.44-1.06,1.06-2.03,1.77-2.83.8-.8,1.77-1.5,2.83-1.94,1.06-.53,2.3-.71,3.62-.71s2.56.27,3.62.71c1.06.53,2.03,1.15,2.83,1.94.8.8,1.41,1.77,1.77,2.83.44,1.06.62,2.21.62,3.45s-.18,2.3-.62,3.45c-.44,1.06-1.06,2.03-1.77,2.83-.8.8-1.77,1.5-2.83,1.94-.97.44-2.21.71-3.54.71ZM243.14,151.63c0,.88.18,1.59.44,2.3s.62,1.33,1.06,1.86.97.97,1.68,1.24c.62.27,1.33.44,2.03.44s1.41-.18,2.03-.44,1.15-.71,1.68-1.24c.44-.53.8-1.15,1.06-1.86.27-.71.44-1.5.44-2.3s-.18-1.59-.44-2.3-.62-1.33-1.06-1.86-.97-.97-1.68-1.24c-.62-.27-1.33-.44-2.03-.44s-1.41.18-2.03.44c-.62.35-1.15.71-1.68,1.24-.44.53-.8,1.15-1.15,1.86-.18.71-.35,1.5-.35,2.3Z"/>
    <path class="cls-4" d="M287.78,160.29h-3.62v-9.72c0-1.59-.27-2.83-.8-3.54-.53-.8-1.33-1.15-2.3-1.15-1.06,0-1.94.35-2.83,1.15-.88.8-1.5,1.77-1.86,3.01v10.26h-3.62v-9.72c0-1.68-.27-2.83-.8-3.54s-1.33-1.15-2.3-1.15c-1.06,0-2.03.35-2.83,1.15-.88.8-1.5,1.77-1.86,2.92v10.34h-3.62v-17.33h3.36v3.45c.71-1.24,1.59-2.12,2.74-2.83,1.15-.62,2.39-.97,3.8-.97s2.56.35,3.36,1.15c.8.8,1.33,1.68,1.5,2.83.71-1.33,1.68-2.3,2.74-2.92,1.15-.71,2.39-.97,3.8-.97,1.06,0,1.86.18,2.56.62.71.35,1.24.88,1.59,1.5.44.62.71,1.41.8,2.21.18.88.27,1.77.27,2.74v10.52h-.09Z"/>
    <path class="cls-4" d="M302.63,160.64c-1.41,0-2.65-.35-3.71-.97s-1.94-1.5-2.56-2.56v10.34h-3.62v-24.4h3.18v3.09c.71-1.06,1.5-1.86,2.56-2.48,1.06-.62,2.21-.97,3.54-.97,1.24,0,2.3.27,3.27.71.97.53,1.86,1.15,2.56,1.94s1.33,1.77,1.68,2.83c.44,1.06.62,2.21.62,3.45s-.18,2.48-.53,3.54-.88,2.03-1.59,2.83-1.5,1.41-2.48,1.94c-.8.44-1.86.71-2.92.71ZM301.4,157.46c.8,0,1.5-.18,2.12-.53.62-.35,1.15-.8,1.59-1.33s.8-1.15,1.06-1.86c.27-.71.35-1.41.35-2.21s-.18-1.59-.44-2.3-.62-1.33-1.15-1.86c-.44-.53-1.06-.97-1.68-1.24-.71-.35-1.41-.44-2.12-.44-.44,0-.97.09-1.5.27s-.97.44-1.41.71c-.44.35-.8.71-1.15,1.06-.35.44-.53.88-.71,1.33v4.51c.18.53.53,1.06.88,1.5s.71.88,1.15,1.24.88.62,1.41.8c.53.27,1.06.35,1.59.35Z"/>
    <path class="cls-4" d="M319.7,160.64c-1.86,0-3.18-.62-4.16-1.77s-1.41-2.92-1.41-5.3v-10.61h3.62v9.9c0,3.09,1.15,4.69,3.36,4.69,1.06,0,2.03-.35,2.92-.97.97-.62,1.68-1.59,2.12-2.83v-10.79h3.62v13.08c0,.44.09.71.18.88.18.18.44.27.8.27v3.09c-.35.09-.71.09-.97.18h-.71c-.71,0-1.24-.18-1.68-.53-.44-.35-.71-.8-.71-1.41l-.09-1.77c-.8,1.24-1.77,2.21-3.01,2.83-1.06.71-2.39,1.06-3.89,1.06Z"/>
    <path class="cls-4" d="M344.63,159.41c-.44.27-1.15.44-1.94.71-.8.27-1.68.44-2.65.44-.62,0-1.15-.09-1.59-.27-.53-.18-.97-.35-1.33-.71-.35-.35-.71-.71-.88-1.24-.27-.53-.35-1.06-.35-1.77v-10.87h-2.3v-2.83h2.3v-5.75h3.62v5.75h3.8v2.83h-3.8v9.72c0,.62.27,1.06.62,1.33.35.27.8.44,1.24.44.53,0,.97-.09,1.5-.27.44-.18.8-.35,1.06-.44l.71,2.92Z"/>
    <path class="cls-4" d="M352.58,160.64c-.88,0-1.59-.18-2.3-.44-.71-.27-1.33-.62-1.86-1.15s-.97-1.06-1.24-1.77-.44-1.41-.44-2.12c0-.8.18-1.59.53-2.21.35-.71.88-1.24,1.5-1.77s1.41-.88,2.3-1.15,1.86-.44,3.01-.44c.8,0,1.59.09,2.39.18.8.18,1.5.35,2.12.62v-1.24c0-1.33-.35-2.3-1.06-3.01-.71-.71-1.77-1.06-3.18-1.06-.97,0-1.86.18-2.74.53-.88.35-1.86.8-2.74,1.5l-1.15-2.3c2.21-1.5,4.6-2.3,6.98-2.3s4.24.62,5.57,1.86c1.33,1.24,2.03,3.01,2.03,5.22v6.28c0,.8.35,1.15.97,1.24v3.09c-.35.09-.62.09-.88.18h-.71c-.71,0-1.24-.18-1.68-.53-.35-.35-.62-.8-.71-1.33l-.09-1.06c-.8,1.06-1.77,1.77-2.83,2.3-1.24.62-2.48.88-3.8.88ZM353.64,157.9c.88,0,1.68-.18,2.48-.44.8-.35,1.41-.8,1.86-1.33.44-.44.71-.8.71-1.24v-2.3c-.62-.27-1.24-.44-1.94-.53-.71-.18-1.41-.18-2.03-.18-1.33,0-2.39.27-3.18.88-.8.53-1.24,1.33-1.24,2.21s.35,1.59.97,2.21c.53.44,1.33.71,2.39.71Z"/>
    <path class="cls-4" d="M376.63,159.41c-.44.27-1.15.44-1.94.71-.8.27-1.68.44-2.65.44-.62,0-1.15-.09-1.59-.27-.53-.18-.97-.35-1.33-.71-.35-.35-.71-.71-.88-1.24-.27-.53-.35-1.06-.35-1.77v-10.87h-2.3v-2.83h2.3v-5.75h3.62v5.75h3.8v2.83h-3.8v9.72c0,.62.27,1.06.62,1.33.35.27.8.44,1.24.44.53,0,.97-.09,1.5-.27.44-.18.8-.35,1.06-.44l.71,2.92Z"/>
    <path class="cls-4" d="M379.72,140.05v-3.98h3.62v3.98h-3.62ZM379.72,160.29v-17.33h3.62v17.33h-3.62Z"/>
    <path class="cls-4" d="M396.43,160.64c-1.41,0-2.56-.27-3.71-.71-1.06-.53-2.03-1.15-2.83-1.94-.8-.8-1.41-1.77-1.77-2.83-.44-1.06-.62-2.21-.62-3.45s.18-2.3.62-3.45c.44-1.06,1.06-2.03,1.77-2.83.8-.8,1.77-1.5,2.83-1.94,1.06-.53,2.3-.71,3.62-.71s2.56.27,3.62.71c1.06.53,2.03,1.15,2.83,1.94.8.8,1.41,1.77,1.77,2.83.44,1.06.62,2.21.62,3.45s-.18,2.3-.62,3.45c-.44,1.06-1.06,2.03-1.77,2.83-.8.8-1.77,1.5-2.83,1.94s-2.21.71-3.54.71ZM391.22,151.63c0,.88.18,1.59.44,2.3s.62,1.33,1.06,1.86.97.97,1.68,1.24c.62.27,1.33.44,2.03.44s1.41-.18,2.03-.44c.62-.27,1.15-.71,1.68-1.24.44-.53.8-1.15,1.06-1.86.27-.71.44-1.5.44-2.3s-.18-1.59-.44-2.3-.62-1.33-1.06-1.86-.97-.97-1.68-1.24c-.62-.27-1.33-.44-2.03-.44s-1.41.18-2.03.44c-.62.35-1.15.71-1.68,1.24-.44.53-.8,1.15-1.15,1.86-.18.71-.35,1.5-.35,2.3Z"/>
    <path class="cls-4" d="M424.9,160.29h-3.62v-9.72c0-1.68-.27-2.83-.8-3.54s-1.33-1.15-2.3-1.15c-.53,0-1.06.09-1.59.27s-1.06.44-1.5.88-.88.8-1.24,1.33-.62,1.06-.88,1.68v10.34h-3.62v-17.33h3.36v3.45c.71-1.15,1.59-2.12,2.92-2.74,1.24-.71,2.65-.97,4.16-.97,1.06,0,1.86.18,2.56.53.71.35,1.15.88,1.59,1.5.35.62.62,1.41.8,2.3.18.88.27,1.77.27,2.74v10.43h-.09Z"/>
    <path class="cls-4" d="M434.54,160.64c-.88,0-1.59-.18-2.3-.44-.71-.27-1.33-.62-1.86-1.15s-.97-1.06-1.24-1.77-.44-1.41-.44-2.12c0-.8.18-1.59.53-2.21.35-.71.88-1.24,1.5-1.77s1.41-.88,2.3-1.15,1.86-.44,3.01-.44c.8,0,1.59.09,2.39.18.8.18,1.5.35,2.12.62v-1.24c0-1.33-.35-2.3-1.06-3.01-.71-.71-1.77-1.06-3.18-1.06-.97,0-1.86.18-2.74.53-.88.35-1.86.8-2.74,1.5l-1.15-2.3c2.21-1.5,4.6-2.3,6.98-2.3s4.24.62,5.57,1.86c1.33,1.24,2.03,3.01,2.03,5.22v6.28c0,.8.35,1.15.97,1.24v3.09c-.35.09-.62.09-.88.18h-.71c-.71,0-1.24-.18-1.68-.53-.35-.35-.62-.8-.71-1.33l-.09-1.06c-.8,1.06-1.77,1.77-2.83,2.3-1.33.62-2.56.88-3.8.88ZM435.51,157.9c.88,0,1.68-.18,2.48-.44.8-.35,1.41-.8,1.86-1.33.44-.44.71-.8.71-1.24v-2.3c-.62-.27-1.24-.44-1.94-.53s-1.41-.18-2.03-.18c-1.33,0-2.39.27-3.18.88-.8.53-1.24,1.33-1.24,2.21s.35,1.59.97,2.21c.53.44,1.41.71,2.39.71Z"/>
    <path class="cls-4" d="M449.21,136.07h3.62v19.18c0,.62.18,1.15.53,1.5s.8.53,1.41.53c.27,0,.53,0,.88-.18.35-.09.62-.18.88-.27l.53,2.83c-.53.27-1.15.44-1.86.62s-1.41.18-1.94.18c-1.24,0-2.21-.35-2.92-1.06s-1.06-1.68-1.06-2.92v-20.42h-.09Z"/>
    <path class="cls-4" d="M217.59,195.21v-23.6h10.26c1.06,0,2.03.27,2.92.71s1.68,1.06,2.3,1.77c.62.71,1.15,1.5,1.5,2.48.35.88.53,1.86.53,2.83,0,.8-.09,1.59-.35,2.3s-.53,1.41-.97,2.03-.88,1.15-1.5,1.59c-.62.44-1.24.8-1.86.97l5.57,8.93h-4.24l-5.13-8.22h-5.48v8.22h-3.54ZM221.3,183.72h6.54c.53,0,.97-.09,1.41-.35.44-.27.8-.53,1.15-.97.35-.44.53-.88.71-1.41s.27-1.06.27-1.68-.09-1.15-.35-1.68c-.18-.53-.53-.97-.8-1.41-.35-.44-.71-.71-1.24-.97-.44-.27-.88-.35-1.41-.35h-6.28v8.84h0Z"/>
    <path class="cls-4" d="M247.29,195.56c-1.41,0-2.56-.27-3.71-.71-1.06-.53-2.03-1.15-2.83-1.94s-1.41-1.77-1.77-2.83c-.44-1.06-.62-2.21-.62-3.45s.18-2.3.62-3.45c.44-1.06,1.06-2.03,1.77-2.83.8-.8,1.77-1.5,2.83-1.94,1.06-.53,2.3-.71,3.62-.71s2.56.27,3.62.71c1.06.53,2.03,1.15,2.83,1.94.8.8,1.41,1.77,1.77,2.83.44,1.06.62,2.21.62,3.45s-.18,2.3-.62,3.45c-.44,1.06-1.06,2.03-1.77,2.83-.8.8-1.77,1.5-2.83,1.94-.97.44-2.21.71-3.54.71ZM242.07,186.55c0,.88.18,1.59.44,2.3.27.71.62,1.33,1.06,1.86s.97.97,1.68,1.24c.62.27,1.33.44,2.03.44s1.41-.18,2.03-.44c.62-.27,1.15-.71,1.68-1.24.44-.53.8-1.15,1.06-1.86.27-.71.44-1.5.44-2.3s-.18-1.59-.44-2.3-.62-1.33-1.06-1.86-.97-.97-1.68-1.24c-.62-.27-1.33-.44-2.03-.44s-1.41.18-2.03.44c-.62.35-1.15.71-1.68,1.24-.44.53-.8,1.15-1.15,1.86-.18.71-.35,1.5-.35,2.3Z"/>
    <path class="cls-4" d="M269.48,195.56c-1.33,0-2.56-.35-3.62-.97s-1.94-1.5-2.56-2.56v3.18h-3.18v-24.22h3.62v10.17c.71-1.15,1.5-1.94,2.56-2.65,1.06-.62,2.21-.97,3.62-.97,1.15,0,2.21.27,3.18.71.97.53,1.77,1.15,2.48,2.03.71.8,1.24,1.77,1.59,2.92.35,1.06.53,2.21.53,3.45s-.18,2.39-.62,3.45c-.44,1.06-.97,2.03-1.77,2.83-.71.8-1.59,1.41-2.56,1.94-.97.44-2.12.71-3.27.71ZM268.51,192.38c.8,0,1.5-.18,2.21-.44.71-.35,1.24-.71,1.68-1.24s.88-1.15,1.15-1.86c.27-.71.44-1.41.44-2.21s-.09-1.5-.35-2.21-.62-1.33-1.06-1.86-.97-.97-1.59-1.33c-.62-.35-1.33-.53-2.03-.53-1.15,0-2.12.35-3.01,1.06s-1.5,1.59-2.03,2.65v4.6c.18.53.35.97.71,1.41s.71.8,1.15,1.06c.44.35.88.53,1.41.71.44.18.88.18,1.33.18Z"/>
    <path class="cls-4" d="M289.64,195.56c-1.41,0-2.56-.27-3.71-.71-1.06-.53-2.03-1.15-2.83-1.94s-1.41-1.77-1.77-2.83c-.44-1.06-.62-2.21-.62-3.45s.18-2.3.62-3.45c.44-1.06,1.06-2.03,1.77-2.83.8-.8,1.77-1.5,2.83-1.94,1.06-.53,2.3-.71,3.62-.71s2.56.27,3.62.71c1.06.53,2.03,1.15,2.83,1.94.8.8,1.41,1.77,1.77,2.83.44,1.06.62,2.21.62,3.45s-.18,2.3-.62,3.45c-.44,1.06-1.06,2.03-1.77,2.83-.8.8-1.77,1.5-2.83,1.94-.97.44-2.21.71-3.54.71ZM284.42,186.55c0,.88.18,1.59.44,2.3.27.71.62,1.33,1.06,1.86s.97.97,1.68,1.24c.62.27,1.33.44,2.03.44s1.41-.18,2.03-.44c.62-.27,1.15-.71,1.68-1.24.44-.53.8-1.15,1.06-1.86.27-.71.44-1.5.44-2.3s-.18-1.59-.44-2.3-.62-1.33-1.06-1.86-.97-.97-1.68-1.24c-.62-.27-1.33-.44-2.03-.44s-1.41.18-2.03.44c-.62.35-1.15.71-1.68,1.24-.44.53-.8,1.15-1.15,1.86-.18.71-.35,1.5-.35,2.3Z"/>
    <path class="cls-4" d="M311.83,194.33c-.44.27-1.15.44-1.94.71-.8.27-1.68.44-2.65.44-.62,0-1.15-.09-1.59-.27-.53-.18-.97-.35-1.33-.71s-.71-.71-.88-1.24c-.27-.53-.35-1.06-.35-1.77v-10.87h-2.39v-2.83h2.3v-5.75h3.62v5.75h3.8v2.83h-3.8v9.72c0,.62.27,1.06.62,1.33.35.27.8.44,1.24.44.53,0,.97-.09,1.5-.27.44-.18.8-.35,1.06-.44l.8,2.92Z"/>
    <path class="cls-4" d="M314.83,174.97v-3.98h3.62v3.98h-3.62ZM314.83,195.21v-17.33h3.62v17.33h-3.62Z"/>
    <path class="cls-4" d="M322.61,186.55c0-1.24.18-2.39.62-3.45s1.06-2.03,1.77-2.83c.8-.8,1.77-1.5,2.83-1.94,1.15-.44,2.39-.71,3.71-.71,1.77,0,3.36.35,4.6,1.15,1.33.8,2.3,1.86,2.92,3.09l-3.54,1.15c-.44-.71-.97-1.33-1.68-1.68-.71-.44-1.5-.62-2.39-.62-.71,0-1.41.18-2.03.44-.62.27-1.15.71-1.68,1.24-.44.53-.8,1.15-1.06,1.86-.27.71-.44,1.5-.44,2.39s.18,1.59.44,2.3c.27.71.62,1.33,1.15,1.86.44.53,1.06.97,1.68,1.24.62.27,1.33.44,2.03.44.44,0,.88-.09,1.33-.18s.88-.27,1.24-.53c.35-.18.71-.44.97-.8.27-.27.44-.62.62-.97l3.62,1.06c-.62,1.33-1.5,2.39-2.92,3.18-1.33.8-2.92,1.24-4.77,1.24-1.33,0-2.56-.27-3.71-.71-1.15-.53-2.03-1.15-2.83-1.94s-1.41-1.77-1.86-2.83c-.44-1.15-.62-2.3-.62-3.45Z"/>
    <path class="cls-4" d="M349.31,195.56c-1.41,0-2.74-.27-4.16-.71s-2.56-1.06-3.54-1.94l1.5-2.3c1.06.8,2.03,1.33,3.09,1.68s2.03.62,3.09.62,1.94-.18,2.56-.62c.62-.44.97-1.06.97-1.77s-.35-1.24-1.06-1.59c-.71-.35-1.86-.71-3.36-1.06-1.06-.27-2.03-.53-2.83-.8-.8-.27-1.41-.62-1.86-.97-.53-.35-.88-.8-1.06-1.24-.27-.44-.35-1.06-.35-1.68,0-.88.18-1.68.53-2.39s.8-1.24,1.41-1.77c.62-.44,1.33-.8,2.12-1.06s1.68-.35,2.65-.35c1.33,0,2.56.18,3.62.62,1.15.44,2.12.97,3.01,1.77l-1.59,2.21c-1.59-1.33-3.36-1.94-5.13-1.94-.97,0-1.68.18-2.3.62-.62.35-.97.97-.97,1.86,0,.35.09.62.18.88.18.27.35.44.62.62.27.18.71.35,1.15.44.44.18,1.06.27,1.77.44,1.15.27,2.21.62,3.01.88.88.27,1.59.62,2.12.97s.97.88,1.24,1.33c.27.53.44,1.15.44,1.86,0,1.68-.62,3.01-1.86,3.89-1.24.97-2.92,1.5-5.04,1.5Z"/>
    <path class="cls-4" d="M370.8,195.21v-23.6h3.71v20.33h12.64v3.27h-16.36Z"/>
    <path class="cls-4" d="M395.55,195.56c-.88,0-1.59-.18-2.3-.44-.71-.27-1.33-.62-1.86-1.15-.53-.53-.97-1.06-1.24-1.77s-.44-1.41-.44-2.12c0-.8.18-1.59.53-2.21.35-.71.88-1.24,1.5-1.77s1.41-.88,2.3-1.15,1.86-.44,3.01-.44c.8,0,1.59.09,2.39.18.8.18,1.5.35,2.12.62v-1.24c0-1.33-.35-2.3-1.06-3.01-.71-.71-1.77-1.06-3.18-1.06-.97,0-1.86.18-2.74.53-.88.35-1.86.8-2.74,1.5l-1.15-2.3c2.21-1.5,4.6-2.3,6.98-2.3s4.24.62,5.57,1.86c1.33,1.24,2.03,3.01,2.03,5.22v6.28c0,.8.35,1.15.97,1.24v3.09c-.35.09-.62.09-.88.18h-.71c-.71,0-1.24-.18-1.68-.53-.35-.35-.62-.8-.71-1.33l-.09-1.06c-.8,1.06-1.77,1.77-2.83,2.3-1.33.62-2.56.88-3.8.88ZM396.52,192.82c.88,0,1.68-.18,2.48-.44.8-.35,1.41-.8,1.86-1.33.44-.44.71-.8.71-1.24v-2.3c-.62-.27-1.24-.44-1.94-.53-.71-.18-1.41-.18-2.03-.18-1.33,0-2.39.27-3.18.88-.8.53-1.24,1.33-1.24,2.21s.35,1.59.97,2.21c.53.44,1.41.71,2.39.71Z"/>
    <path class="cls-4" d="M419.77,195.56c-1.33,0-2.56-.35-3.62-.97s-1.94-1.5-2.56-2.56v3.18h-3.18v-24.22h3.62v10.17c.71-1.15,1.5-1.94,2.56-2.65,1.06-.62,2.21-.97,3.62-.97,1.15,0,2.21.27,3.18.71.97.53,1.77,1.15,2.48,2.03.71.8,1.24,1.77,1.59,2.92.35,1.06.53,2.21.53,3.45s-.18,2.39-.62,3.45c-.44,1.06-.97,2.03-1.77,2.83-.71.8-1.59,1.41-2.56,1.94-1.06.44-2.12.71-3.27.71ZM418.8,192.38c.8,0,1.5-.18,2.21-.44.71-.35,1.24-.71,1.68-1.24s.88-1.15,1.15-1.86c.27-.71.44-1.41.44-2.21s-.09-1.5-.35-2.21-.62-1.33-1.06-1.86-.97-.97-1.59-1.33c-.62-.35-1.33-.53-2.03-.53-1.15,0-2.12.35-3.01,1.06s-1.5,1.59-2.03,2.65v4.6c.09.53.35.97.71,1.41s.71.8,1.15,1.06c.44.35.88.53,1.41.71.35.18.8.18,1.33.18Z"/>
  </g>
  <g>
    <polygon class="cls-4" points="410.05 90.63 410.05 13.71 387.77 13.71 387.77 110.16 456.81 110.16 456.81 90.63 410.05 90.63"/>
    <path class="cls-4" d="M350.9,76.3c3.8-1.77,7.07-4.24,9.72-7.34s4.77-6.54,6.28-10.43,2.21-7.96,2.21-12.2c0-3.98-.8-7.96-2.39-11.85-1.59-3.89-3.8-7.34-6.54-10.43s-6.1-5.57-9.9-7.51c-3.89-1.94-8.05-2.83-12.73-2.83h-35.72v19.54h34.21c1.24,0,2.56.27,3.8.71,1.24.53,2.39,1.33,3.36,2.39.97,1.06,1.77,2.48,2.39,4.07.62,1.59.88,3.54.88,5.83,0,4.33-.97,7.69-2.83,9.9-1.94,2.3-4.16,3.36-6.81,3.36h-33.68l38.01,50.57h28.47l-24.05-32c1.86-.35,3.62-.97,5.3-1.77Z"/>
    <path class="cls-4" d="M258.87,90.63c-4.07,0-7.69-.71-10.87-2.21-3.18-1.41-5.83-3.45-7.96-6.01-2.12-2.56-3.8-5.66-4.86-9.11-1.15-3.45-1.68-7.34-1.68-11.49s.53-8.13,1.68-11.58,2.83-6.45,4.95-9.02c2.21-2.56,4.86-4.51,8.05-5.83s6.72-2.03,10.7-2.03h21.13V13.8h-21.13c-7.96,0-14.94,1.24-20.95,3.8-6.01,2.56-10.96,6.01-15.03,10.34-4.07,4.33-7.07,9.46-9.11,15.29s-3.09,12.11-3.09,18.65c0,7.34,1.15,13.97,3.36,19.89,2.3,5.92,5.48,10.96,9.72,15.21s9.28,7.51,15.21,9.81c5.92,2.3,12.55,3.45,19.8,3.45h42.44l-14.76-19.54h-27.58v-.09Z"/>
  </g>
  <g>
    <g>
      <path class="cls-3" d="M174.62,41.71c0-7.07-3.89-13.31-9.54-16.73h0L126.31,2.59h0c-2.83-1.65-6.24-2.59-9.78-2.59s-6.72.94-9.66,2.59h0l-29.22,16.85,19.44,11.19,19.44-11.19,38.77,22.39v44.77l-58.21,33.58,9.43,5.42h0c2.95,1.77,6.36,2.71,9.9,2.71s6.83-.94,9.66-2.59h0l38.88-22.51h0c5.66-3.3,9.54-9.43,9.54-16.5h0l.12-45.01h0Z"/>
      <path class="cls-1" d="M9.66,58.56c-6.13,3.53-9.66,10.02-9.66,16.61h0v44.77h0c0,3.3.82,6.72,2.59,9.78s4.24,5.42,7.07,7.07h0l29.22,16.85v-22.39l-19.44-11.19v-44.77l38.77-22.39,58.21,33.58v-10.84h0c0-3.42-.82-6.83-2.59-10.02-1.77-3.06-4.24-5.42-7.07-7.07h0l-38.88-22.51h0c-5.77-3.3-12.96-3.53-19.09,0h0L9.66,58.56h0Z"/>
    </g>
    <path class="cls-2" d="M106.75,193c6.13,3.53,13.43,3.3,19.21,0h0l38.77-22.39h0c2.95-1.65,5.42-4.01,7.19-7.19,1.77-3.06,2.59-6.36,2.59-9.54h0v-33.7l-19.44,11.19v22.39l-38.77,22.39-38.77-22.39v-67.16l-9.43,5.42h0c-2.95,1.65-5.54,4.12-7.31,7.19-1.77,3.06-2.59,6.36-2.59,9.66h0v44.89h0c0,6.6,3.42,12.96,9.54,16.5h0l39,22.74h0Z"/>
  </g>
</svg>